<svg xmlns="http://www.w3.org/2000/svg" width="512" height="512" viewBox="0 0 512 512"><path d="M511.199 306.785v1.73a.211.211 0 010 .277v47.187a27.922 27.922 0 01-15.568 21.103L286.819 502.383a77.86 77.86 0 01-71.542 1.73L16.082 388.497a24.337 24.337 0 01-13.907-19.235 9.089 9.089 0 010-1.937l-1.454-1.038v-49.47l2.006-.069a29.945 29.945 0 0115.014-17.712l208.883-125.302a56.66 56.66 0 0113.007-5.743l48.778-1.384c4.359 2.422 9.479 5.258 9.686 5.397l199.127 115.615a24.597 24.597 0 0113.977 19.166z" fill="#717275"/><path d="M288.411 166.608c4.359 2.422 9.479 5.258 9.686 5.397L497.223 287.62c19.304 11.209 18.612 30.097-1.591 42.275L286.819 455.126a77.449 77.449 0 01-71.542 1.73L16.082 341.31c-19.235-11.278-18.543-30.167 1.661-42.275l208.882-125.302a56.687 56.687 0 0113.008-5.743" fill="#b4b4b3"/><path d="M288.391 227.405a156.543 156.543 0 0166.185 18.73c47.061 27.387 45.251 73.503-4.171 103.172-49.343 29.669-127.568 31.479-174.708 4.171-47.14-27.387-45.251-73.582 4.092-103.172a170.051 170.051 0 0161.384-21.091z" fill="#919d9e"/><path d="M288.391 234.724a103.233 103.233 0 0138.64 12.198c32.581 18.887 31.243 50.917-2.833 71.378-34.155 20.54-88.456 21.799-120.958 2.912-32.581-18.887-31.322-50.917 2.833-71.457a112.242 112.242 0 0135.099-13.143z" fill="#a5b4b4"/><path d="M241.172 139.108V275.44a23.61 23.61 0 1047.219 0V139.108a162.151 162.151 0 01-47.219 0z" fill="#c9ced1"/><path d="M511.2 306.854a6.69 6.69 0 010 1.661" fill="#b4b4b3"/><g fill="#d8625e"><circle cx="264.771" cy="79.976" r="79.976"/><ellipse transform="rotate(-93.296 256.1698 417.5799)" cx="256.15" cy="417.556" rx="15.491" ry="26.333"/></g><path d="M87.417 353.628a3.442 3.442 0 01-1.737-.466c-14.581-8.466-22.669-20.155-22.763-32.926-.095-13.716 8.872-26.689 25.264-36.52a3.458 3.458 0 013.554 5.933c-13.993 8.399-21.973 19.527-21.898 30.541.074 10.216 6.939 19.804 19.318 26.986a3.46 3.46 0 01-1.738 6.452z" fill="#dadcda"/><path d="M217.565 80.878a3.455 3.455 0 01-3.46-3.46c.025-23.631 19.173-42.782 42.804-42.81a3.459 3.459 0 110 6.918c-19.811.026-35.863 16.081-35.885 35.892a3.46 3.46 0 01-3.459 3.46z" fill="#fe9189"/></svg>
