<svg xmlns="http://www.w3.org/2000/svg" width="40" height="40" viewBox="0 0 15 15"><path d="M2.197 12.803c-2.93-2.93-2.93-7.678 0-10.606 2.93-2.93 7.677-2.93 10.606 0 2.93 2.928 2.93 7.677 0 10.606-2.93 2.93-7.677 2.93-10.606 0zm9.28-9.28c-2.196-2.197-5.758-2.197-7.954 0-2.197 2.196-2.197 5.758 0 7.954 2.196 2.197 5.758 2.197 7.955 0 2.196-2.196 2.196-5.758 0-7.955zm-5.965 7.292L4.186 9.488 6.174 7.5 4.186 5.51l1.326-1.325L7.5 6.175l1.99-1.99 1.324 1.326L8.826 7.5l1.988 1.988-1.325 1.327-1.99-1.99-1.988 1.99z" fill="#fff"/></svg>
